<?xml version="1.0" standalone="no"?>
<!DOCTYPE svg PUBLIC "-//W3C//DTD SVG 20010904//EN"
 "http://www.w3.org/TR/2001/REC-SVG-20010904/DTD/svg10.dtd">
<svg version="1.0" xmlns="http://www.w3.org/2000/svg"
 width="263.000000pt" height="263.000000pt" viewBox="0 0 263.000000 263.000000"
 preserveAspectRatio="xMidYMid meet">
<metadata>
Created by potrace 1.14, written by Peter Selinger 2001-2017
</metadata>
<g transform="translate(0.000000,263.000000) scale(0.100000,-0.100000)"
fill="#000000" stroke="none">
<path d="M386 2614 c-178 -43 -322 -188 -371 -374 -22 -83 -22 -1755 0 -1849
43 -182 187 -326 375 -376 46 -12 199 -15 916 -15 540 0 880 4 914 10 183 35
346 189 394 375 22 86 24 1744 1 1848 -35 167 -151 298 -327 370 -53 21 -57
22 -948 24 -750 1 -904 -1 -954 -13z"/>
</g>
</svg>
